<?xml version="1.0" encoding="us-ascii" standalone="no"?><svg xmlns="http://www.w3.org/2000/svg" xmlns:xlink="http://www.w3.org/1999/xlink" contentStyleType="text/css" height="633px" preserveAspectRatio="none" style="width:343px;height:633px;background:#F9F9F9;" version="1.1" viewBox="0 0 343 633" width="343px" zoomAndPan="magnify"><defs/><g><rect fill="#F9F9F9" height="633" style="stroke:none;stroke-width:1.0;" width="343" x="0" y="0"/><text fill="#000000" font-family="sans-serif" font-size="14" font-weight="bold" lengthAdjust="spacing" textLength="315" x="10" y="24.5332">UML Dijagram - Aplikacija za naru&#269;ivanje kafe</text><!--class MainWindow--><g id="elem_MainWindow"><rect codeLine="6" fill="#F1F1F1" height="171.2656" id="MainWindow" rx="2.5" ry="2.5" style="stroke:#181818;stroke-width:0.5;" width="156" x="92.02" y="45.6094"/><ellipse cx="127.27" cy="61.6094" fill="#ADD1B2" rx="11" ry="11" style="stroke:#181818;stroke-width:1.0;"/><path d="M130.0356,57.4844 Q130.1919,57.2656 130.3794,57.1563 Q130.5669,57.0469 130.7856,57.0469 Q131.1606,57.0469 131.395,57.3125 Q131.6294,57.5625 131.6294,58.1719 L131.6294,59.625 Q131.6294,60.2344 131.395,60.5 Q131.1606,60.7656 130.7856,60.7656 Q130.4419,60.7656 130.2387,60.5625 Q130.0356,60.375 129.9262,59.8594 Q129.8794,59.5 129.6919,59.3125 Q129.3637,58.9375 128.7544,58.7188 Q128.145,58.5 127.52,58.5 Q126.7544,58.5 126.1137,58.8281 Q125.4887,59.1563 124.9887,59.9063 Q124.5044,60.6563 124.5044,61.6875 L124.5044,62.7813 Q124.5044,64.0156 125.395,64.8438 Q126.2856,65.6563 127.8794,65.6563 Q128.8169,65.6563 129.4731,65.4063 Q129.8637,65.25 130.2856,64.8125 Q130.5512,64.5469 130.6919,64.4688 Q130.8481,64.3906 131.0512,64.3906 Q131.3794,64.3906 131.6294,64.6563 Q131.895,64.9063 131.895,65.25 Q131.895,65.5938 131.5512,66 Q131.0512,66.5781 130.2544,66.9063 Q129.1762,67.3594 127.8794,67.3594 Q126.3637,67.3594 125.1606,66.7344 Q124.1762,66.2344 123.4887,65.1719 Q122.8012,64.0938 122.8012,62.8125 L122.8012,61.6563 Q122.8012,60.3281 123.4106,59.1875 Q124.0356,58.0313 125.1294,57.4219 Q126.2231,56.7969 127.4575,56.7969 Q128.1919,56.7969 128.8325,56.9688 Q129.4887,57.125 130.0356,57.4844 Z " fill="#000000"/><text fill="#000000" font-family="sans-serif" font-size="14" lengthAdjust="spacing" textLength="79" x="145.77" y="67.3379">MainWindow</text><line style="stroke:#181818;stroke-width:0.5;" x1="93.02" x2="247.02" y1="77.6094" y2="77.6094"/><text fill="#000000" font-family="sans-serif" font-size="14" lengthAdjust="spacing" textLength="124" x="98.02" y="96.1426">+name_entry: Entry</text><text fill="#000000" font-family="sans-serif" font-size="14" lengthAdjust="spacing" textLength="142" x="98.02" y="113.752">+coffee_var: StringVar</text><text fill="#000000" font-family="sans-serif" font-size="14" lengthAdjust="spacing" textLength="128" x="98.02" y="131.3613">+sugar_scale: Scale</text><text fill="#000000" font-family="sans-serif" font-size="14" lengthAdjust="spacing" textLength="138" x="98.02" y="148.9707">+blend_var: StringVar</text><text fill="#000000" font-family="sans-serif" font-size="14" lengthAdjust="spacing" textLength="120" x="98.02" y="166.5801">+addons_vars: dict</text><line style="stroke:#181818;stroke-width:0.5;" x1="93.02" x2="247.02" y1="173.6563" y2="173.6563"/><text fill="#000000" font-family="sans-serif" font-size="14" lengthAdjust="spacing" textLength="84" x="98.02" y="192.1895">+reset(): void</text><text fill="#000000" font-family="sans-serif" font-size="14" lengthAdjust="spacing" textLength="144" x="98.02" y="209.7988">+process_order(): void</text></g><!--class Coffee--><g id="elem_Coffee"><rect codeLine="16" fill="#F1F1F1" height="83.2188" id="Coffee" rx="2.5" ry="2.5" style="stroke:#181818;stroke-width:0.5;" width="79" x="81.52" y="543.6094"/><ellipse cx="98.77" cy="559.6094" fill="#ADD1B2" rx="11" ry="11" style="stroke:#181818;stroke-width:1.0;"/><path d="M101.5356,555.4844 Q101.6919,555.2656 101.8794,555.1563 Q102.0669,555.0469 102.2856,555.0469 Q102.6606,555.0469 102.895,555.3125 Q103.1294,555.5625 103.1294,556.1719 L103.1294,557.625 Q103.1294,558.2344 102.895,558.5 Q102.6606,558.7656 102.2856,558.7656 Q101.9419,558.7656 101.7387,558.5625 Q101.5356,558.375 101.4262,557.8594 Q101.3794,557.5 101.1919,557.3125 Q100.8637,556.9375 100.2544,556.7188 Q99.645,556.5 99.02,556.5 Q98.2544,556.5 97.6137,556.8281 Q96.9887,557.1563 96.4887,557.9063 Q96.0044,558.6563 96.0044,559.6875 L96.0044,560.7813 Q96.0044,562.0156 96.895,562.8438 Q97.7856,563.6563 99.3794,563.6563 Q100.3169,563.6563 100.9731,563.4063 Q101.3637,563.25 101.7856,562.8125 Q102.0512,562.5469 102.1919,562.4688 Q102.3481,562.3906 102.5512,562.3906 Q102.8794,562.3906 103.1294,562.6563 Q103.395,562.9063 103.395,563.25 Q103.395,563.5938 103.0512,564 Q102.5512,564.5781 101.7544,564.9063 Q100.6762,565.3594 99.3794,565.3594 Q97.8637,565.3594 96.6606,564.7344 Q95.6762,564.2344 94.9887,563.1719 Q94.3012,562.0938 94.3012,560.8125 L94.3012,559.6563 Q94.3012,558.3281 94.9106,557.1875 Q95.5356,556.0313 96.6294,555.4219 Q97.7231,554.7969 98.9575,554.7969 Q99.6919,554.7969 100.3325,554.9688 Q100.9887,555.125 101.5356,555.4844 Z " fill="#000000"/><text fill="#000000" font-family="sans-serif" font-size="14" lengthAdjust="spacing" textLength="42" x="113.27" y="565.3379">Coffee</text><line style="stroke:#181818;stroke-width:0.5;" x1="82.52" x2="159.52" y1="575.6094" y2="575.6094"/><text fill="#000000" font-family="sans-serif" font-size="14" lengthAdjust="spacing" textLength="67" x="87.52" y="594.1426">+name: str</text><text fill="#000000" font-family="sans-serif" font-size="14" lengthAdjust="spacing" textLength="62" x="87.52" y="611.752">+price: int</text><line style="stroke:#181818;stroke-width:0.5;" x1="82.52" x2="159.52" y1="618.8281" y2="618.8281"/></g><!--class Addon--><g id="elem_Addon"><rect codeLine="21" fill="#F1F1F1" height="83.2188" id="Addon" rx="2.5" ry="2.5" style="stroke:#181818;stroke-width:0.5;" width="79" x="205.52" y="543.6094"/><ellipse cx="223.22" cy="559.6094" fill="#ADD1B2" rx="11" ry="11" style="stroke:#181818;stroke-width:1.0;"/><path d="M225.9856,555.4844 Q226.1419,555.2656 226.3294,555.1563 Q226.5169,555.0469 226.7356,555.0469 Q227.1106,555.0469 227.345,555.3125 Q227.5794,555.5625 227.5794,556.1719 L227.5794,557.625 Q227.5794,558.2344 227.345,558.5 Q227.1106,558.7656 226.7356,558.7656 Q226.3919,558.7656 226.1888,558.5625 Q225.9856,558.375 225.8763,557.8594 Q225.8294,557.5 225.6419,557.3125 Q225.3138,556.9375 224.7044,556.7188 Q224.095,556.5 223.47,556.5 Q222.7044,556.5 222.0638,556.8281 Q221.4388,557.1563 220.9388,557.9063 Q220.4544,558.6563 220.4544,559.6875 L220.4544,560.7813 Q220.4544,562.0156 221.345,562.8438 Q222.2356,563.6563 223.8294,563.6563 Q224.7669,563.6563 225.4231,563.4063 Q225.8138,563.25 226.2356,562.8125 Q226.5013,562.5469 226.6419,562.4688 Q226.7981,562.3906 227.0013,562.3906 Q227.3294,562.3906 227.5794,562.6563 Q227.845,562.9063 227.845,563.25 Q227.845,563.5938 227.5013,564 Q227.0013,564.5781 226.2044,564.9063 Q225.1263,565.3594 223.8294,565.3594 Q222.3138,565.3594 221.1106,564.7344 Q220.1263,564.2344 219.4388,563.1719 Q218.7513,562.0938 218.7513,560.8125 L218.7513,559.6563 Q218.7513,558.3281 219.3606,557.1875 Q219.9856,556.0313 221.0794,555.4219 Q222.1731,554.7969 223.4075,554.7969 Q224.1419,554.7969 224.7825,554.9688 Q225.4388,555.125 225.9856,555.4844 Z " fill="#000000"/><text fill="#000000" font-family="sans-serif" font-size="14" lengthAdjust="spacing" textLength="41" x="237.82" y="565.3379">Addon</text><line style="stroke:#181818;stroke-width:0.5;" x1="206.52" x2="283.52" y1="575.6094" y2="575.6094"/><text fill="#000000" font-family="sans-serif" font-size="14" lengthAdjust="spacing" textLength="67" x="211.52" y="594.1426">+name: str</text><text fill="#000000" font-family="sans-serif" font-size="14" lengthAdjust="spacing" textLength="62" x="211.52" y="611.752">+price: int</text><line style="stroke:#181818;stroke-width:0.5;" x1="206.52" x2="283.52" y1="618.8281" y2="618.8281"/></g><!--class Order--><g id="elem_Order"><rect codeLine="26" fill="#F1F1F1" height="171.2656" id="Order" rx="2.5" ry="2.5" style="stroke:#181818;stroke-width:0.5;" width="148" x="96.02" y="294.6094"/><ellipse cx="147.27" cy="310.6094" fill="#ADD1B2" rx="11" ry="11" style="stroke:#181818;stroke-width:1.0;"/><path d="M150.0356,306.4844 Q150.1919,306.2656 150.3794,306.1563 Q150.5669,306.0469 150.7856,306.0469 Q151.1606,306.0469 151.395,306.3125 Q151.6294,306.5625 151.6294,307.1719 L151.6294,308.625 Q151.6294,309.2344 151.395,309.5 Q151.1606,309.7656 150.7856,309.7656 Q150.4419,309.7656 150.2387,309.5625 Q150.0356,309.375 149.9262,308.8594 Q149.8794,308.5 149.6919,308.3125 Q149.3637,307.9375 148.7544,307.7188 Q148.145,307.5 147.52,307.5 Q146.7544,307.5 146.1137,307.8281 Q145.4887,308.1563 144.9887,308.9063 Q144.5044,309.6563 144.5044,310.6875 L144.5044,311.7813 Q144.5044,313.0156 145.395,313.8438 Q146.2856,314.6563 147.8794,314.6563 Q148.8169,314.6563 149.4731,314.4063 Q149.8637,314.25 150.2856,313.8125 Q150.5512,313.5469 150.6919,313.4688 Q150.8481,313.3906 151.0512,313.3906 Q151.3794,313.3906 151.6294,313.6563 Q151.895,313.9063 151.895,314.25 Q151.895,314.5938 151.5512,315 Q151.0512,315.5781 150.2544,315.9063 Q149.1762,316.3594 147.8794,316.3594 Q146.3637,316.3594 145.1606,315.7344 Q144.1762,315.2344 143.4887,314.1719 Q142.8012,313.0938 142.8012,311.8125 L142.8012,310.6563 Q142.8012,309.3281 143.4106,308.1875 Q144.0356,307.0313 145.1294,306.4219 Q146.2231,305.7969 147.4575,305.7969 Q148.1919,305.7969 148.8325,305.9688 Q149.4887,306.125 150.0356,306.4844 Z " fill="#000000"/><text fill="#000000" font-family="sans-serif" font-size="14" lengthAdjust="spacing" textLength="37" x="167.77" y="316.3379">Order</text><line style="stroke:#181818;stroke-width:0.5;" x1="97.02" x2="243.02" y1="326.6094" y2="326.6094"/><text fill="#000000" font-family="sans-serif" font-size="14" lengthAdjust="spacing" textLength="133" x="102.02" y="345.1426">+customer_name: str</text><text fill="#000000" font-family="sans-serif" font-size="14" lengthAdjust="spacing" textLength="97" x="102.02" y="362.752">+coffee: Coffee</text><text fill="#000000" font-family="sans-serif" font-size="14" lengthAdjust="spacing" textLength="67" x="102.02" y="380.3613">+sugar: int</text><text fill="#000000" font-family="sans-serif" font-size="14" lengthAdjust="spacing" textLength="67" x="102.02" y="397.9707">+blend: str</text><text fill="#000000" font-family="sans-serif" font-size="14" lengthAdjust="spacing" textLength="80" x="102.02" y="415.5801">+addons: list</text><line style="stroke:#181818;stroke-width:0.5;" x1="97.02" x2="243.02" y1="422.6563" y2="422.6563"/><text fill="#000000" font-family="sans-serif" font-size="14" lengthAdjust="spacing" textLength="132" x="102.02" y="441.1895">+calculate_total(): int</text><text fill="#000000" font-family="sans-serif" font-size="14" lengthAdjust="spacing" textLength="136" x="102.02" y="458.7988">+save_to_json(): void</text></g><!--link MainWindow to Coffee--><g id="link_MainWindow_Coffee"><path codeLine="36" d="M95.36,216.9894 C78.86,240.5794 63.71,267.2694 55.02,294.6094 C31.98,367.0394 35.91,392.0494 55.02,465.6094 C62.24,493.4194 77.57,521.6294 91.63,543.5494 " fill="none" id="MainWindow-Coffee" style="stroke:#181818;stroke-width:1.0;"/><text fill="#000000" font-family="sans-serif" font-size="13" lengthAdjust="spacing" textLength="21" x="56.02" y="385.6045">bira</text><text fill="#000000" font-family="sans-serif" font-size="13" lengthAdjust="spacing" textLength="7" x="81.8874" y="238.2625">1</text><text fill="#000000" font-family="sans-serif" font-size="13" lengthAdjust="spacing" textLength="5" x="81.3482" y="532.8471">*</text></g><!--link MainWindow to Addon--><g id="link_MainWindow_Addon"><path codeLine="37" d="M228.6,216.6894 C242.26,240.7994 254.89,267.8194 262.02,294.6094 C287.05,388.6694 275.15,417.0294 263.02,513.6094 C261.79,523.3894 259.64,533.7494 257.24,543.4394 " fill="none" id="MainWindow-Addon" style="stroke:#181818;stroke-width:1.0;"/><text fill="#000000" font-family="sans-serif" font-size="13" lengthAdjust="spacing" textLength="38" x="277.02" y="385.6045">dodaje</text><text fill="#000000" font-family="sans-serif" font-size="13" lengthAdjust="spacing" textLength="7" x="226.3334" y="238.2302">1</text><text fill="#000000" font-family="sans-serif" font-size="13" lengthAdjust="spacing" textLength="5" x="253.8499" y="532.7189">*</text></g><!--link MainWindow to Order--><g id="link_MainWindow_Order"><path codeLine="38" d="M170.02,216.7694 C170.02,241.9094 170.02,269.4294 170.02,294.5594 " fill="none" id="MainWindow-Order" style="stroke:#181818;stroke-width:1.0;"/><text fill="#000000" font-family="sans-serif" font-size="13" lengthAdjust="spacing" textLength="32" x="171.02" y="261.1045">kreira</text><text fill="#000000" font-family="sans-serif" font-size="13" lengthAdjust="spacing" textLength="7" x="162.7192" y="238.3171">1</text><text fill="#000000" font-family="sans-serif" font-size="13" lengthAdjust="spacing" textLength="7" x="162.7083" y="283.7265">1</text></g><!--link Order to Coffee--><g id="link_Order_Coffee"><path codeLine="39" d="M149.23,465.8194 C146.79,475.8594 144.34,485.9594 142.02,495.6094 C138.25,511.2694 134.15,528.4994 130.58,543.5594 " fill="none" id="Order-Coffee" style="stroke:#181818;stroke-width:1.0;"/><text fill="#000000" font-family="sans-serif" font-size="13" lengthAdjust="spacing" textLength="35" x="143.02" y="510.1045">sadr&#382;i</text><text fill="#000000" font-family="sans-serif" font-size="13" lengthAdjust="spacing" textLength="7" x="140.1426" y="487.3714">1</text><text fill="#000000" font-family="sans-serif" font-size="13" lengthAdjust="spacing" textLength="5" x="126.7493" y="532.8588">*</text></g><!--link Order to Addon--><g id="link_Order_Addon"><path codeLine="40" d="M201.28,465.7294 C211.21,492.5994 221.74,521.0994 229.98,543.3994 " fill="none" id="Order-Addon" style="stroke:#181818;stroke-width:1.0;"/><text fill="#000000" font-family="sans-serif" font-size="13" lengthAdjust="spacing" textLength="35" x="219.02" y="510.1045">sadr&#382;i</text><text fill="#000000" font-family="sans-serif" font-size="13" lengthAdjust="spacing" textLength="7" x="196.6656" y="487.2737">1</text><text fill="#000000" font-family="sans-serif" font-size="13" lengthAdjust="spacing" textLength="5" x="222.0749" y="532.6723">*</text></g><!--SRC=[bL6xJWCn4EplArQXuQ58KE8k2Y0X4L54G7dQs9l8ESUETdr11F49_18L_1VdE9US81ISYvLdPtR7Sr9PlqJ61KnGLpCEjJV3u0B3qSrbEeNi6DgXo216jfCwqgqEVcpN1ET54Mrq10-ZExYoSvmbSXy6IsShr0q0QmIFN7- -snNwEK65KogApJmOeVLFrflm3Ay5DD-PnmMLv2E_ABXE9SCwJAT4vGfPmRWnuMUFoBabzGov58sEcbug6PyuykQW0eq9Nb9B51YhOuQPXEBnYO9Li2P3ImwQHCh0XdZNUclj3pUkkjOLIEHMQtLpjpxk1OEq-H_y-xItvUjQObWGbp-4EHkrTTC99G_RXz7Hv0WKE2jRHXEShXr6AcE8wD9ZTsh1LOBBkGJVJQ7p-teNFUZteNVQQrDHCB6CVt1o44twmU2S3f6Qab-le69Aa_Brq291mryVzZUZNTCIlW40]--></g></svg>